<?xml version="1.0" encoding="UTF-8" standalone="no"?>
<!-- Created with Inkscape (http://www.inkscape.org/) -->

<svg
   xmlns:dc="http://purl.org/dc/elements/1.1/"
   xmlns:cc="http://creativecommons.org/ns#"
   xmlns:rdf="http://www.w3.org/1999/02/22-rdf-syntax-ns#"
   xmlns:svg="http://www.w3.org/2000/svg"
   xmlns="http://www.w3.org/2000/svg"
   xmlns:sodipodi="http://sodipodi.sourceforge.net/DTD/sodipodi-0.dtd"
   xmlns:inkscape="http://www.inkscape.org/namespaces/inkscape"
   width="242.47307"
   height="177.41925"
   viewBox="0 0 242.47307 177.41925"
   id="svg7317"
   version="1.1"
   inkscape:version="0.91 r13725"
   sodipodi:docname="portrait.svg">
  <defs
     id="defs7319">
    <clipPath
       clipPathUnits="userSpaceOnUse"
       id="clipPath7248">
      <circle
         style="fill:#3c3c3c;fill-opacity:1"
         id="circle7250"
         cx="1413.1095"
         cy="1.2451301"
         r="86.974136" />
    </clipPath>
  </defs>
  <sodipodi:namedview
     id="base"
     pagecolor="#ffffff"
     bordercolor="#666666"
     borderopacity="1.0"
     inkscape:pageopacity="0.0"
     inkscape:pageshadow="2"
     inkscape:zoom="2"
     inkscape:cx="99.04786"
     inkscape:cy="54.028845"
     inkscape:document-units="px"
     inkscape:current-layer="layer1"
     showgrid="false"
     fit-margin-top="0"
     fit-margin-left="0"
     fit-margin-right="0"
     fit-margin-bottom="0"
     units="px"
     inkscape:window-width="686"
     inkscape:window-height="405"
     inkscape:window-x="514"
     inkscape:window-y="304"
     inkscape:window-maximized="0" />
  <metadata
     id="metadata7322">
    <rdf:RDF>
      <cc:Work
         rdf:about="">
        <dc:format>image/svg+xml</dc:format>
        <dc:type
           rdf:resource="http://purl.org/dc/dcmitype/StillImage" />
        <dc:title></dc:title>
      </cc:Work>
    </rdf:RDF>
  </metadata>
  <g
     inkscape:label="Layer 1"
     inkscape:groupmode="layer"
     id="layer1"
     transform="translate(-238.76346,-612.224)">
    <rect
       style="fill:#c9b872;fill-opacity:0"
       id="rect7252"
       width="242.47308"
       height="177.41925"
       x="238.76346"
       y="612.224"
       inkscape:export-filename="C:\Users\Ben\Documents\Website\source\img\portrait.png"
       inkscape:export-xdpi="90"
       inkscape:export-ydpi="90" />
    <path
       sodipodi:nodetypes="sccsss"
       inkscape:connector-curvature="0"
       id="path7075-6"
       d="m 446.97411,700.32725 c 2e-5,30.132 -15.32286,56.6851 -38.60163,72.2924 -24.99794,-47.48081 -98.21527,-13.82898 -112.55212,-13.5934 -14.1571,-15.4704 -22.7945,-36.076 -22.7945,-58.699 0,-48.0345 38.9396,-86.9741 86.9741,-86.9741 48.03448,0 86.97411,38.9396 86.97415,86.9741 z"
       style="fill:#7dd1f8;fill-opacity:1" />
    <path
       inkscape:transform-center-y="17.14412"
       inkscape:transform-center-x="-24.004918"
       sodipodi:nodetypes="cczcczc"
       inkscape:connector-curvature="0"
       id="path4645-2-50-5-9-4-9-0-9-4-7-0-9-7-4-7-1-7-4"
       d="m 410.39316,717.89435 c 9.0702,7.325 29.9154,18.0739 44.8473,22.1153 0,0 11.0291,5.4933 4.614,18.5026 -6.415,13.0087 -17.4877,7.6035 -17.4877,7.6035 -10.7773,-6.4821 -30.9756,-17.717 -44.8472,-22.1154 0,0 -11.6667,-5.4119 -5.0944,-18.7394 6.5721,-13.3275 17.968,-7.3666 17.968,-7.3666 z"
       style="color:#000000;font-style:normal;font-variant:normal;font-weight:normal;font-stretch:normal;font-size:medium;line-height:normal;font-family:sans-serif;text-indent:0;text-align:start;text-decoration:none;text-decoration-line:none;text-decoration-style:solid;text-decoration-color:#000000;letter-spacing:normal;word-spacing:normal;text-transform:none;direction:ltr;block-progression:tb;writing-mode:lr-tb;baseline-shift:baseline;text-anchor:start;white-space:normal;clip-rule:nonzero;display:inline;overflow:visible;visibility:visible;opacity:1;isolation:auto;mix-blend-mode:normal;color-interpolation:sRGB;color-interpolation-filters:linearRGB;solid-color:#000000;solid-opacity:1;fill:#505050;fill-opacity:1;fill-rule:evenodd;stroke:none;stroke-width:20.27881622;stroke-linecap:butt;stroke-linejoin:round;stroke-miterlimit:4;stroke-dasharray:none;stroke-dashoffset:0;stroke-opacity:1;color-rendering:auto;image-rendering:auto;shape-rendering:auto;text-rendering:auto;enable-background:accumulate" />
    <g
       clip-path="url(#clipPath7248)"
       inkscape:export-ydpi="42.369999"
       inkscape:export-xdpi="42.369999"
       inkscape:export-filename="C:\Users\benja_000\Pictures\eshvolution.png"
       id="g5520-2-6-4-3-5-1"
       transform="translate(-1053.1095,699.08215)">
      <g
         transform="translate(-238.49999,-12.5)"
         id="g6599" />
      <g
         inkscape:export-ydpi="90"
         inkscape:export-xdpi="90"
         inkscape:export-filename="C:\Users\Ben\Pictures\Inkscape\Exports\websiteCharacter.png"
         transform="translate(-501.51396,-1.325949)"
         id="g8293-0-6-4-5-7-51">
        <path
           inkscape:export-ydpi="90"
           inkscape:export-xdpi="90"
           inkscape:export-filename="C:\Users\benja_000\Pictures\esharp.png"
           sodipodi:nodetypes="sssssssss"
           inkscape:connector-curvature="0"
           id="rect4551-3-2-5-4-7-4-9-6-2-6-3-7-7-1-5-1-7-3"
           d="m 1883.7836,34.963792 65.6985,0 c 6.743,0 9.9432,5.62156 10.3857,12.35002 1.8409,27.990829 -0.6617,45.253209 -1.2447,67.896218 -0.1736,6.74075 -5.6459,10.47301 -12.1715,12.17145 -20.3845,5.30557 -40.3432,6.77824 -59.3851,0 -6.3525,-2.26128 -12.1184,-5.42867 -12.1714,-12.17145 -0.1783,-22.691599 -5.2754,-44.380629 -3.283,-68.074788 0.5862,-6.97069 5.4285,-12.17145 12.1715,-12.17145 z"
           style="fill:#dedede;fill-opacity:1;stroke:none;stroke-width:2.13700008;stroke-miterlimit:4;stroke-dasharray:none;stroke-opacity:1" />
        <g
           id="g5267-3-6-3-7-2-8-3-0-9-2-5-1-54"
           transform="matrix(1.0235348,0,0,1.2328136,1710.9164,-992.34775)">
          <path
             style="fill:#505050;fill-opacity:1;fill-rule:evenodd;stroke:none;stroke-width:0.81115264px;stroke-linecap:butt;stroke-linejoin:miter;stroke-opacity:1"
             d="m 219.34495,851.10661 c 8.79899,-1.53088 19.3524,-26.16885 25.12139,-36.02865 0.23936,-0.4091 -0.0366,8.21587 0.36886,8.02466 2.25599,26.33688 -1.23647,53.35055 7.51165,78.92306 -12.6333,9.0058 -25.59798,9.58897 -38.23129,11.58688 0.13307,-23.61959 -21.31853,-42.79184 5.22939,-62.50595 z"
             id="path5140-4-3-8-9-9-27-1-4-0-8-8-3-9-9-5"
             inkscape:connector-curvature="0"
             sodipodi:nodetypes="cscccc" />
        </g>
        <path
           sodipodi:nodetypes="csscccc"
           inkscape:connector-curvature="0"
           id="path5140-4-3-8-2-7-2-7-6-6-5-6-4-8-3-7-3"
           d="m 1925.224,75.110459 c -2.3939,-0.315877 -16.44,-18.382895 -18.1743,-21.312684 -11.5448,-19.502819 -30.746,-30.773625 -39.7627,-40.894476 -0.4493,-0.504333 -0.8676,5.835486 -1.5465,5.59976 0.7145,32.468465 12.9929,70.064434 3.2142,101.590571 19.7731,15.6106 39.4258,15.6009 61.7327,13.73399 -4.2531,-29.09341 10.0461,-28.22271 -5.4634,-58.717161 z"
           style="fill:#505050;fill-opacity:1;fill-rule:evenodd;stroke:none;stroke-width:0.81115264px;stroke-linecap:butt;stroke-linejoin:miter;stroke-opacity:1" />
        <path
           sodipodi:nodetypes="cczcczc"
           inkscape:connector-curvature="0"
           id="path4645-2-50-5-9-4-9-0-9-5-7-6-0-0-0-5-8-6"
           d="m 1864.4255,35.067908 c -3.7511,11.038775 -15.6243,31.264611 -26.0847,42.660932 0,0 -6.3859,10.537558 5.9892,18.104214 12.3745,7.566276 18.8441,-2.920078 18.8441,-2.920078 8.9128,-9.295344 17.4659,-31.080981 26.0847,-42.660933 0,0 6.9681,-10.809518 -5.7096,-18.5612 -12.6778,-7.751732 -19.1237,3.377065 -19.1237,3.377065 z"
           style="color:#000000;font-style:normal;font-variant:normal;font-weight:normal;font-stretch:normal;font-size:medium;line-height:normal;font-family:sans-serif;text-indent:0;text-align:start;text-decoration:none;text-decoration-line:none;text-decoration-style:solid;text-decoration-color:#000000;letter-spacing:normal;word-spacing:normal;text-transform:none;direction:ltr;block-progression:tb;writing-mode:lr-tb;baseline-shift:baseline;text-anchor:start;white-space:normal;clip-rule:nonzero;display:inline;overflow:visible;visibility:visible;opacity:1;isolation:auto;mix-blend-mode:normal;color-interpolation:sRGB;color-interpolation-filters:linearRGB;solid-color:#000000;solid-opacity:1;fill:#505050;fill-opacity:1;fill-rule:evenodd;stroke:none;stroke-width:20.27881622;stroke-linecap:butt;stroke-linejoin:round;stroke-miterlimit:4;stroke-dasharray:none;stroke-dashoffset:0;stroke-opacity:1;color-rendering:auto;image-rendering:auto;shape-rendering:auto;text-rendering:auto;enable-background:accumulate" />
        <g
           id="g6352-37-2-35-2-2-9-9-4-3"
           transform="matrix(0.21797689,-1.592902,-1.4178031,0.04991791,3052.7105,432.37259)"
           inkscape:transform-center-x="-5.0165426"
           inkscape:transform-center-y="28.772598">
          <path
             sodipodi:nodetypes="czc"
             inkscape:connector-curvature="0"
             id="path4645-2-3-2-5-1-7-0-0-6-1-1-3-9-3-8-8-4-2-7"
             d="m 215.17905,885.95257 c 0,0 -8.81016,-2.12311 -8.69422,-9.60928 0.11584,-7.4861 8.92676,-5.41399 8.92676,-5.41399"
             style="color:#000000;font-style:normal;font-variant:normal;font-weight:normal;font-stretch:normal;font-size:medium;line-height:normal;font-family:sans-serif;text-indent:0;text-align:start;text-decoration:none;text-decoration-line:none;text-decoration-style:solid;text-decoration-color:#000000;letter-spacing:normal;word-spacing:normal;text-transform:none;direction:ltr;block-progression:tb;writing-mode:lr-tb;baseline-shift:baseline;text-anchor:start;white-space:normal;clip-rule:nonzero;display:inline;overflow:visible;visibility:visible;opacity:1;isolation:auto;mix-blend-mode:normal;color-interpolation:sRGB;color-interpolation-filters:linearRGB;solid-color:#000000;solid-opacity:1;fill:#f5b88f;fill-opacity:0.62352941;fill-rule:evenodd;stroke:none;stroke-width:20.27881622;stroke-linecap:butt;stroke-linejoin:round;stroke-miterlimit:4;stroke-dasharray:none;stroke-dashoffset:0;stroke-opacity:1;color-rendering:auto;image-rendering:auto;shape-rendering:auto;text-rendering:auto;enable-background:accumulate" />
          <path
             inkscape:transform-center-y="-2.7779195"
             inkscape:transform-center-x="-24.243661"
             sodipodi:nodetypes="csccsczcc"
             inkscape:connector-curvature="0"
             id="path4645-2-3-8-8-3-6-6-0-0-8-6-1-3-3-1-4-5-9"
             d="m 245.23597,895.39083 c 0.13297,-0.64507 -16.11255,-6.54674 -24.79618,-6.58257 -3.2058,-0.0132 -3.11387,-0.60767 -9.31966,-0.93511 1.90224,-4.41732 1.24747,-15.04245 -0.16014,-21.41879 3.74242,2.09562 6.7705,2.48251 10.04116,4.18428 8.5877,4.46831 24.9339,5.37855 24.87184,4.77398 0,0 8.12179,1.58045 7.79668,11.77957 -0.3252,10.19912 -8.43367,8.19864 -8.43367,8.19864 z"
             style="color:#000000;font-style:normal;font-variant:normal;font-weight:normal;font-stretch:normal;font-size:medium;line-height:normal;font-family:sans-serif;text-indent:0;text-align:start;text-decoration:none;text-decoration-line:none;text-decoration-style:solid;text-decoration-color:#000000;letter-spacing:normal;word-spacing:normal;text-transform:none;direction:ltr;block-progression:tb;writing-mode:lr-tb;baseline-shift:baseline;text-anchor:start;white-space:normal;clip-rule:nonzero;display:inline;overflow:visible;visibility:visible;opacity:1;isolation:auto;mix-blend-mode:normal;color-interpolation:sRGB;color-interpolation-filters:linearRGB;solid-color:#000000;solid-opacity:1;fill:#505050;fill-opacity:1;fill-rule:evenodd;stroke:none;stroke-width:20.27881622;stroke-linecap:butt;stroke-linejoin:round;stroke-miterlimit:4;stroke-dasharray:none;stroke-dashoffset:0;stroke-opacity:1;color-rendering:auto;image-rendering:auto;shape-rendering:auto;text-rendering:auto;enable-background:accumulate" />
        </g>
        <path
           sodipodi:nodetypes="cccc"
           inkscape:connector-curvature="0"
           id="path6621-6-8-8"
           d="m 1931.4404,82.913227 c -22.8116,-10.961282 -43.97,-37.099962 -59.69,-58.999994 l 20.8125,8.849999 z"
           style="fill:#3e3e3e;fill-opacity:1;fill-rule:evenodd;stroke:none;stroke-width:1px;stroke-linecap:butt;stroke-linejoin:miter;stroke-opacity:1" />
        <path
           sodipodi:nodetypes="ccccc"
           inkscape:connector-curvature="0"
           id="path6621-3-2-9-76"
           d="m 1923.6258,75.46738 c 15.5552,-12.963963 28.0684,-33.672078 37.4946,-51.554177 l 0.2034,-6.856127 -19.3284,15.706127 -22.5524,38.580994"
           style="fill:#3e3e3e;fill-opacity:1;fill-rule:evenodd;stroke:none;stroke-width:1px;stroke-linecap:butt;stroke-linejoin:miter;stroke-opacity:1" />
        <g
           transform="translate(1.9999999,-34.999999)"
           id="g8084">
          <ellipse
             ry="48.465641"
             rx="55.196114"
             transform="matrix(0.97846824,-0.20639745,0.27221935,0.96223522,0,0)"
             cy="424.95389"
             cx="1839.7157"
             id="path4210-4-0-4-3-4-8-6-1-6-3-7-5-7-7-2-7"
             style="fill:#f6b88f;fill-opacity:1;stroke:none;stroke-width:2.13700008;stroke-miterlimit:4;stroke-dasharray:none;stroke-opacity:1"
             inkscape:export-filename="C:\Users\benja_000\Pictures\esharp.png"
             inkscape:export-xdpi="90"
             inkscape:export-ydpi="90" />
          <g
             transform="matrix(-0.56609988,-0.02548682,0.02548682,-0.56609988,2015.2805,360.02913)"
             id="g4185-7-2-2-1-9-0-8-6-9-7-4-7-5-7-18-5-1-7"
             inkscape:export-filename="C:\Users\benja_000\Pictures\esharp.png"
             inkscape:export-xdpi="90"
             inkscape:export-ydpi="90">
            <path
               style="fill:#ffffff;fill-opacity:1;stroke:none;stroke-width:2.13700008;stroke-miterlimit:4;stroke-dasharray:none;stroke-opacity:1"
               d="m 210.86328,952.23828 a 11.544965,11.544965 0 0 0 -11.23633,11.02344 11.544965,11.544965 0 0 0 1.1211,5.48242 19.950513,7.3236064 0 0 1 10.2539,-1.05078 19.950513,7.3236064 0 0 1 10.54493,1.11719 11.544965,11.544965 0 0 0 1.14648,-4.51172 11.544965,11.544965 0 0 0 -11.01367,-12.05274 11.544965,11.544965 0 0 0 -0.81641,-0.008 z"
               transform="matrix(-2.1733264,0.097847,-0.097847,-2.1733264,706.79172,2627.6622)"
               id="path4138-6-7-9-7-5-5-2-4-2-9-8-1-1-4-0-5-06-2"
               inkscape:connector-curvature="0" />
            <circle
               style="fill:#000000;fill-opacity:1;stroke:none;stroke-width:2.13700008;stroke-miterlimit:4;stroke-dasharray:none;stroke-opacity:1"
               id="path4142-3-4-7-3-0-6-1-5-6-9-0-1-0-7-7-0-7-7"
               cx="155.47177"
               cy="558.40094"
               r="8.8799858" />
          </g>
          <g
             transform="matrix(-0.56609988,-0.02548682,0.02548682,-0.56609988,1979.617,360.02913)"
             id="g4185-7-2-2-1-4-0-6-3-1-8-4-8-5-1-2-1-7"
             inkscape:export-filename="C:\Users\benja_000\Pictures\esharp.png"
             inkscape:export-xdpi="90"
             inkscape:export-ydpi="90">
            <path
               style="fill:#ffffff;fill-opacity:1;stroke:none;stroke-width:2.13700008;stroke-miterlimit:4;stroke-dasharray:none;stroke-opacity:1"
               d="m 181.93359,952.23828 a 11.544965,11.544965 0 0 0 -11.23437,11.02344 11.544965,11.544965 0 0 0 1.11914,5.48242 19.950513,7.3236064 0 0 1 10.25586,-1.05078 19.950513,7.3236064 0 0 1 10.54492,1.11719 11.544965,11.544965 0 0 0 1.14648,-4.51172 11.544965,11.544965 0 0 0 -11.01562,-12.05274 11.544965,11.544965 0 0 0 -0.81641,-0.008 z"
               transform="matrix(-2.1733264,0.097847,-0.097847,-2.1733264,643.9205,2630.4928)"
               id="path4138-6-7-9-7-4-8-8-5-9-3-5-9-9-67-3-5-7"
               inkscape:connector-curvature="0" />
            <circle
               style="fill:#000000;fill-opacity:1;stroke:none;stroke-width:2.13700008;stroke-miterlimit:4;stroke-dasharray:none;stroke-opacity:1"
               id="path4142-3-4-7-3-3-3-7-7-4-0-6-1-5-9-4-5-1"
               cx="155.47177"
               cy="558.40094"
               r="8.8799858" />
          </g>
          <path
             style="fill:none;fill-rule:evenodd;stroke:#88471b;stroke-width:2.0999999;stroke-linecap:round;stroke-linejoin:miter;stroke-miterlimit:4;stroke-dasharray:none;stroke-opacity:1"
             d="m 1918.7949,60.723927 c 3.1523,3.4815 7.1955,4.9259 13.9569,0.1556"
             id="path4381-5-0-7-7-6-5-2-1-6-5-4-0-5-7"
             inkscape:connector-curvature="0"
             sodipodi:nodetypes="cc" />
          <path
             inkscape:connector-curvature="0"
             id="path8353"
             d="m 1882.9252,35.1846 -6.4524,-2.74"
             style="fill:none;fill-rule:evenodd;stroke:#573823;stroke-width:3;stroke-linecap:butt;stroke-linejoin:miter;stroke-miterlimit:4;stroke-dasharray:none;stroke-opacity:1" />
          <path
             sodipodi:nodetypes="cccccsscccscccccscccccccccccsccsc"
             inkscape:connector-curvature="0"
             id="path4256-3-0-9-5-5-8-3-7-4-7-9-79-9-5-1-6"
             transform="translate(3280.8753,-2891.4525)"
             d="m -1432.4118,2881.6077 c 8.8125,-5.9375 11.3491,-6.1138 6.8024,0.027 -0.8837,1.1936 -15.7492,16.9006 -16.557,30.6928 4.0711,-10.9594 9.4275,-14.3078 8.6086,-12.9033 -1.6736,5.8966 -0.4205,11.7894 0.1164,17.6831 0.661,5.9322 2.2637,11.7481 4.8418,17.1406 2.2195,4.6425 5.1439,8.9737 8.7617,12.8028 3.9085,4.1368 8.6255,7.6874 14.1406,10.4101 -2.9996,-5.0802 -5.1685,-15.4022 1.3614,-29.3314 l 3.3459,5.7407 c -0.2808,-2.0973 2.1072,-15.3125 3.8458,-17.147 1.3169,-1.3895 2.4707,-2.9834 7.0973,-5.1412 -0.7609,0.4381 -0.6308,5.5895 0.3731,9.8711 2.1329,-6.7098 0.7433,-8.6234 6.9179,-11.1289 2.9787,-1.2086 6.2945,-1.783 9.4375,-2.4785 2.2916,-0.3317 9.4784,3.1599 13.8164,6.8906 8.3544,-0.5774 14.9398,-9.4349 20.4102,-7.5976 3.4222,1.1494 6.3387,2.6803 8.8223,4.4765 1.1614,0.8399 4.2899,5.2997 5.457,13.6817 0.8598,-1.8072 2.8456,-4.9853 0.9063,-7.4297 9.9526,13.2231 7.2437,31.6959 7.3046,31.2246 13.7013,-19.0476 13.7216,-51.1522 0.959,-70.8066 0.7943,1.6156 3.6861,-0.1655 5.4219,-0.7286 -3.6668,0.5104 -7.8741,-2.707 -8.4414,-3.3925 -6.2429,-7.5442 -14.8006,-12.4825 -25.6016,-12.836 3.4667,-1.6621 3.1385,-5.2284 0.9043,-5.7441 1.1932,4.5962 -5.0149,5.8195 -5.8379,5.8945 -3.5253,-4.068 -11.2008,-8.4226 -21.3652,-9.5058 -1.1396,-0.1215 -7.8568,0.5415 -15.0509,0.5745 -3.27,0.015 -6.7112,0.4107 -9.9121,1.5195 16.6863,1.0524 21.1295,2.5006 21.1446,2.488 -11.1,0.018 -25.5262,5.0757 -37.219,10.7084 -12.0259,5.7931 -13.5592,5.6533 -20.8119,14.3446 z"
             style="fill:#94661f;fill-opacity:1;fill-rule:evenodd;stroke:none;stroke-width:1px;stroke-linecap:butt;stroke-linejoin:miter;stroke-opacity:1" />
          <g
             id="g8250"
             transform="translate(499.51394,36.325971)" />
          <g
             transform="matrix(0.95908567,0,0,1,80.201377,0)"
             id="g8312">
            <path
               sodipodi:nodetypes="sssssssss"
               inkscape:connector-curvature="0"
               id="rect8174-3-36"
               d="m 1887.8064,28.917544 c 8.0863,-1.9555 16.6182,-1.2747 25.4305,1.0684 4.4049,1.1711 9.2541,4.5482 8.6321,9.4118 l -0.756,5.9068 c -0.6208,4.8636 -3.0258,8.0921 -7.325,8.7414 -8.1419,1.2299 -16.2738,1.6874 -24.2463,-1.0185 -5.581,-1.8941 -8.1426,-2.6154 -8.6317,-9.4119 l -0.429,-5.9564 c -0.5031,-6.986 0.4922,-7.0892 7.3249,-8.7416 z"
               style="color:#000000;clip-rule:nonzero;display:inline;overflow:visible;visibility:visible;opacity:1;isolation:auto;mix-blend-mode:normal;color-interpolation:sRGB;color-interpolation-filters:linearRGB;solid-color:#000000;solid-opacity:1;fill:#ffffff;fill-opacity:0.41666667;fill-rule:nonzero;stroke:none;stroke-width:3;stroke-linecap:butt;stroke-linejoin:miter;stroke-miterlimit:4;stroke-dasharray:none;stroke-dashoffset:0;stroke-opacity:1;color-rendering:auto;image-rendering:auto;shape-rendering:auto;text-rendering:auto;enable-background:accumulate" />
            <path
               sodipodi:nodetypes="sssssssss"
               inkscape:connector-curvature="0"
               id="rect8174-3-3-8"
               d="m 1955.5635,29.779144 c -7.2583,-1.8793 -14.9316,-1.2249 -22.867,1.0269 -3.9662,1.1255 -8.3443,4.3712 -7.8123,9.0455 l 0.6459,5.6768 c 0.5318,4.6743 2.6744,7.777 6.5357,8.4011 7.3121,1.182 14.62,1.6217 21.802,-0.9789 5.0276,-1.8203 7.3344,-2.5135 7.8122,-9.0455 l 0.4191,-5.7245 c 0.4914,-6.714 -0.4035,-6.8133 -6.5356,-8.4014 z"
               style="color:#000000;clip-rule:nonzero;display:inline;overflow:visible;visibility:visible;opacity:1;isolation:auto;mix-blend-mode:normal;color-interpolation:sRGB;color-interpolation-filters:linearRGB;solid-color:#000000;solid-opacity:1;fill:#ffffff;fill-opacity:0.41666667;fill-rule:nonzero;stroke:none;stroke-width:3;stroke-linecap:butt;stroke-linejoin:miter;stroke-miterlimit:4;stroke-dasharray:none;stroke-dashoffset:0;stroke-opacity:1;color-rendering:auto;image-rendering:auto;shape-rendering:auto;text-rendering:auto;enable-background:accumulate" />
            <g
               transform="matrix(0.91058561,0,0,1,171.79554,2.0135041e-5)"
               id="g8275">
              <path
                 inkscape:connector-curvature="0"
                 id="rect8174-3"
                 d="m 1898.4451,26.339844 c -4.6876,-0.219669 -9.2972,0.108651 -13.8142,1.078125 l -0.086,0 -0.167,0.03711 0,0 c -3.7427,0.824152 -6.0951,1.093863 -7.8887,2.830078 -0.8968,0.868108 -1.377,2.05219 -1.5491,3.285156 -0.175,1.232967 -0.1206,2.617035 0.02,4.400391 l 0.4722,5.957031 c 0.2836,3.587965 1.2674,5.9277 3.0965,7.435547 1.8292,1.507848 4.2172,2.157453 7.2724,3.101563 9.042,2.794534 18.2259,2.308455 27.2557,1.066406 2.6723,-0.367529 4.3466,-1.543425 5.9764,-3.369141 1.6298,-1.825715 2.5596,-4.190904 2.9322,-6.847656 l 0.8295,-5.90625 c 0.4253,-3.027992 -0.4119,-5.512738 -2.466,-7.287109 -2.0541,-1.774371 -4.7491,-2.966314 -7.3487,-3.595703 -4.9077,-1.188186 -9.7594,-1.961816 -14.5337,-2.185547 z m -0.5343,3 c 4.55,0.21358 9.2215,0.950592 13.9916,2.105468 2.2377,0.541762 4.6244,1.625971 6.2716,3.048829 1.6471,1.422857 2.505,3.058904 2.2471,4.894531 l -0.8295,5.90625 c -0.3094,2.206863 -1.1747,3.950421 -2.2163,5.117187 -1.0414,1.166766 -2.2892,1.866621 -4.3383,2.148438 -8.8527,1.217693 -17.5303,1.646607 -25.999,-0.970703 -3.074,-0.949932 -3.6785,-0.984325 -4.9224,-2.009766 -1.2439,-1.025441 -1.9351,-2.443803 -2.1887,-5.652344 l -0.4703,-5.957031 c -0.1351,-1.70962 -0.1536,-2.956941 -0.042,-3.759765 0.1074,-0.802825 0.2698,-1.05743 0.5151,-1.294922 0.4903,-0.474657 0.958,-1.705837 4.7141,-2.533204 l 2e-4,-0.002 0,0 c 4.2834,-0.943232 8.7105,-1.254596 13.2605,-1.041015 z"
                 style="color:#000000;font-style:normal;font-variant:normal;font-weight:normal;font-stretch:normal;font-size:medium;line-height:normal;font-family:sans-serif;text-indent:0;text-align:start;text-decoration:none;text-decoration-line:none;text-decoration-style:solid;text-decoration-color:#000000;letter-spacing:normal;word-spacing:normal;text-transform:none;direction:ltr;block-progression:tb;writing-mode:lr-tb;baseline-shift:baseline;text-anchor:start;white-space:normal;clip-rule:nonzero;display:inline;overflow:visible;visibility:visible;opacity:1;isolation:auto;mix-blend-mode:normal;color-interpolation:sRGB;color-interpolation-filters:linearRGB;solid-color:#000000;solid-opacity:1;fill:#573823;fill-opacity:1;fill-rule:nonzero;stroke:none;stroke-width:3;stroke-linecap:butt;stroke-linejoin:miter;stroke-miterlimit:4;stroke-dasharray:none;stroke-dashoffset:0;stroke-opacity:1;color-rendering:auto;image-rendering:auto;shape-rendering:auto;text-rendering:auto;enable-background:accumulate"
                 sodipodi:nodetypes="cccccsccccccscsssccccscccccsccccccccc" />
              <path
                 inkscape:connector-curvature="0"
                 id="rect8174-3-3"
                 d="m 1946.3459,27.244141 c -4.3117,0.215886 -8.692,0.961229 -13.1203,2.105468 -2.3647,0.611068 -4.8124,1.765822 -6.6779,3.478516 -1.8654,1.712694 -2.6829,4.084376 -2.3212,6.978516 l 0.7084,5.677734 c 0.3182,2.547105 1.8269,4.878582 3.3061,6.664063 1.4792,1.78548 3.5072,2.214561 5.9641,2.576171 8.1259,1.196069 15.3469,2.353409 23.527,-0.34375 2.751,-0.906976 4.9274,-1.537687 6.5938,-2.998047 1.6664,-1.460359 2.5519,-3.693795 2.8284,-7.134765 l 0.46,-5.724609 c 0.1378,-1.712536 0.1925,-3.039537 0.046,-4.21875 -0.146,-1.179214 -0.5611,-2.317464 -1.3963,-3.1875 -1.6703,-1.740074 -3.8517,-2.003254 -7.2088,-2.794922 -4.1552,-0.979663 -8.3977,-1.294012 -12.7094,-1.078125 z m 0.6018,3 c 4.0731,-0.204415 7.9489,-0.464132 11.6678,0.992187 4.7681,1.867193 5.1262,2.497442 4.7963,6.601563 l -0.46,5.724609 c -0.2484,3.09097 -0.8915,4.470988 -2.0033,5.445312 -1.1118,0.974325 -1.7863,1.598399 -4.5566,2.511719 -7.5942,2.504049 -15.1642,1.828524 -23.0988,0.660616 -1.7835,-0.262496 -2.6268,-0.944671 -3.5302,-2.035156 -0.9035,-1.090484 -2.0505,-2.445539 -2.3163,-4.572725 l -0.7081,-5.675782 -3e-4,-0.002 c -0.2228,-1.780152 0.5698,-3.368421 2.0513,-4.728515 1.4814,-1.360095 3.6174,-2.389829 5.6082,-2.904297 4.2863,-1.107531 8.477,-1.813164 12.55,-2.017578 z"
                 style="color:#000000;font-style:normal;font-variant:normal;font-weight:normal;font-stretch:normal;font-size:medium;line-height:normal;font-family:sans-serif;text-indent:0;text-align:start;text-decoration:none;text-decoration-line:none;text-decoration-style:solid;text-decoration-color:#000000;letter-spacing:normal;word-spacing:normal;text-transform:none;direction:ltr;block-progression:tb;writing-mode:lr-tb;baseline-shift:baseline;text-anchor:start;white-space:normal;clip-rule:nonzero;display:inline;overflow:visible;visibility:visible;opacity:1;isolation:auto;mix-blend-mode:normal;color-interpolation:sRGB;color-interpolation-filters:linearRGB;solid-color:#000000;solid-opacity:1;fill:#573823;fill-opacity:1;fill-rule:nonzero;stroke:none;stroke-width:3;stroke-linecap:butt;stroke-linejoin:miter;stroke-miterlimit:4;stroke-dasharray:none;stroke-dashoffset:0;stroke-opacity:1;color-rendering:auto;image-rendering:auto;shape-rendering:auto;text-rendering:auto;enable-background:accumulate"
                 sodipodi:nodetypes="sscccsccscccccscssssccscccsccc" />
            </g>
          </g>
          <path
             sodipodi:nodetypes="ccssssscccccc"
             inkscape:connector-curvature="0"
             id="path8349"
             d="m 1923.8145,40.943359 -1.7579,2.431641 c 0.5154,0.372605 1.8543,1.828598 1.8776,1.065216 0,-0.119965 0.201,-0.09507 0.3071,-0.07815 0.099,0.0158 0.2003,0.02806 0.3036,0.03637 0.2861,0.02302 0.578,0.01049 0.8718,-0.03581 0.06,-0.0094 0.1625,-0.03194 0.1677,0.100409 0.028,0.714092 1.419,-0.606947 2.0816,-1.103658 l -1.8008,-2.400391 c -0.079,0.05919 -0.1209,-0.01019 -0.1968,-0.12913 0,0.519587 -0.6926,0.593683 -0.8832,0.578349 -0.2076,-0.0167 -0.8335,-0.240197 -0.8228,-0.584366 -0.024,-0.01685 -0.1229,0.137582 -0.1479,0.119524 z"
             style="color:#000000;font-style:normal;font-variant:normal;font-weight:normal;font-stretch:normal;font-size:medium;line-height:normal;font-family:sans-serif;text-indent:0;text-align:start;text-decoration:none;text-decoration-line:none;text-decoration-style:solid;text-decoration-color:#000000;letter-spacing:normal;word-spacing:normal;text-transform:none;direction:ltr;block-progression:tb;writing-mode:lr-tb;baseline-shift:baseline;text-anchor:start;white-space:normal;clip-rule:nonzero;display:inline;overflow:visible;visibility:visible;opacity:1;isolation:auto;mix-blend-mode:normal;color-interpolation:sRGB;color-interpolation-filters:linearRGB;solid-color:#000000;solid-opacity:1;fill:#573823;fill-opacity:1;fill-rule:evenodd;stroke:none;stroke-width:3;stroke-linecap:butt;stroke-linejoin:miter;stroke-miterlimit:4;stroke-dasharray:none;stroke-dashoffset:0;stroke-opacity:1;color-rendering:auto;image-rendering:auto;shape-rendering:auto;text-rendering:auto;enable-background:accumulate" />
        </g>
      </g>
    </g>
    <g
       inkscape:transform-center-y="18.552513"
       inkscape:transform-center-x="-43.612322"
       id="g6352-5-83-5-5-9-9-8-7-6-5"
       transform="matrix(-0.12685638,1.6027346,-1.3745163,-0.35123017,1696.1657,665.64315)">
      <path
         sodipodi:nodetypes="czc"
         inkscape:connector-curvature="0"
         id="path4645-2-3-2-5-1-7-0-0-6-1-9-0-8-4-1-4-5-0-3-3"
         d="m 215.17905,885.95257 c 0,0 -8.81016,-2.12311 -8.69422,-9.60928 0.11584,-7.4861 8.92676,-5.41399 8.92676,-5.41399"
         style="color:#000000;font-style:normal;font-variant:normal;font-weight:normal;font-stretch:normal;font-size:medium;line-height:normal;font-family:sans-serif;text-indent:0;text-align:start;text-decoration:none;text-decoration-line:none;text-decoration-style:solid;text-decoration-color:#000000;letter-spacing:normal;word-spacing:normal;text-transform:none;direction:ltr;block-progression:tb;writing-mode:lr-tb;baseline-shift:baseline;text-anchor:start;white-space:normal;clip-rule:nonzero;display:inline;overflow:visible;visibility:visible;opacity:1;isolation:auto;mix-blend-mode:normal;color-interpolation:sRGB;color-interpolation-filters:linearRGB;solid-color:#000000;solid-opacity:1;fill:#f6b88f;fill-opacity:1;fill-rule:evenodd;stroke:none;stroke-width:20.27881622;stroke-linecap:butt;stroke-linejoin:round;stroke-miterlimit:4;stroke-dasharray:none;stroke-dashoffset:0;stroke-opacity:1;color-rendering:auto;image-rendering:auto;shape-rendering:auto;text-rendering:auto;enable-background:accumulate" />
      <path
         inkscape:transform-center-y="-2.7779195"
         inkscape:transform-center-x="-24.243661"
         sodipodi:nodetypes="csccsczcc"
         inkscape:connector-curvature="0"
         id="path4645-2-3-8-8-3-6-6-0-0-5-4-8-6-4-2-8-8-5-5"
         d="m 245.23597,895.39083 c 0.13297,-0.64507 -16.11255,-6.54674 -24.79618,-6.58257 -3.2058,-0.0132 -3.11387,-0.60767 -9.31966,-0.93511 1.90224,-4.41732 1.24747,-15.04245 -0.16014,-21.41879 3.74242,2.09562 6.7705,2.48251 10.04116,4.18428 8.5877,4.46831 24.9339,5.37855 24.87184,4.77398 0,0 8.12179,1.58045 7.79668,11.77957 -0.3252,10.19912 -8.43367,8.19864 -8.43367,8.19864 z"
         style="color:#000000;font-style:normal;font-variant:normal;font-weight:normal;font-stretch:normal;font-size:medium;line-height:normal;font-family:sans-serif;text-indent:0;text-align:start;text-decoration:none;text-decoration-line:none;text-decoration-style:solid;text-decoration-color:#000000;letter-spacing:normal;word-spacing:normal;text-transform:none;direction:ltr;block-progression:tb;writing-mode:lr-tb;baseline-shift:baseline;text-anchor:start;white-space:normal;clip-rule:nonzero;display:inline;overflow:visible;visibility:visible;opacity:1;isolation:auto;mix-blend-mode:normal;color-interpolation:sRGB;color-interpolation-filters:linearRGB;solid-color:#000000;solid-opacity:1;fill:#505050;fill-opacity:1;fill-rule:evenodd;stroke:none;stroke-width:20.27881622;stroke-linecap:butt;stroke-linejoin:round;stroke-miterlimit:4;stroke-dasharray:none;stroke-dashoffset:0;stroke-opacity:1;color-rendering:auto;image-rendering:auto;shape-rendering:auto;text-rendering:auto;enable-background:accumulate" />
    </g>
  </g>
</svg>
